<svg width="29" height="28" viewBox="0 0 29 28" fill="none" xmlns="http://www.w3.org/2000/svg">
<path d="M21.2083 8.37744L7.45833 8.37745" stroke="black" stroke-opacity="0.56" stroke-width="1.5" stroke-linecap="round" stroke-linejoin="round"/>
<path d="M12.4583 12.1274V17.1274" stroke="black" stroke-opacity="0.56" stroke-width="1.5" stroke-linecap="round" stroke-linejoin="round"/>
<path d="M16.2083 12.1274V17.1274" stroke="black" stroke-opacity="0.56" stroke-width="1.5" stroke-linecap="round" stroke-linejoin="round"/>
<path d="M19.9583 8.37745V20.2524C19.9583 20.4182 19.8925 20.5772 19.7753 20.6944C19.6581 20.8116 19.4991 20.8774 19.3333 20.8774H9.33333C9.16757 20.8774 9.0086 20.8116 8.89139 20.6944C8.77418 20.5772 8.70833 20.4182 8.70833 20.2524V8.37744" stroke="black" stroke-opacity="0.56" stroke-width="1.5" stroke-linecap="round" stroke-linejoin="round"/>
<path d="M17.4583 8.37744V7.12744C17.4583 6.79592 17.3266 6.47798 17.0922 6.24356C16.8578 6.00914 16.5398 5.87744 16.2083 5.87744H12.4583C12.1268 5.87744 11.8089 6.00914 11.5744 6.24356C11.34 6.47798 11.2083 6.79592 11.2083 7.12744V8.37744" stroke="black" stroke-opacity="0.56" stroke-width="1.5" stroke-linecap="round" stroke-linejoin="round"/>
</svg>
