<svg width="29" height="28" viewBox="0 0 29 28" fill="none" xmlns="http://www.w3.org/2000/svg">
<path d="M11.494 10.8459L13.7083 8.63158V15.875C13.7083 16.0408 13.7742 16.1997 13.8914 16.3169C14.0086 16.4341 14.1676 16.5 14.3333 16.5C14.4991 16.5 14.6581 16.4341 14.7753 16.3169C14.8925 16.1997 14.9583 16.0408 14.9583 15.875V8.63158L17.1726 10.8459C17.2307 10.904 17.2996 10.95 17.3754 10.9814C17.4513 11.0128 17.5325 11.029 17.6146 11.029C17.6967 11.029 17.778 11.0128 17.8538 10.9814C17.9296 10.95 17.9985 10.9039 18.0565 10.8459C18.1146 10.7878 18.1606 10.7189 18.192 10.6431C18.2234 10.5673 18.2396 10.486 18.2396 10.4039C18.2396 10.3218 18.2234 10.2406 18.192 10.1647C18.1606 10.0889 18.1146 10.02 18.0565 9.96198L14.7753 6.68073C14.658 6.56356 14.4991 6.49774 14.3333 6.49774C14.1676 6.49774 14.0086 6.56356 13.8914 6.68073L10.6101 9.96198C10.5521 10.02 10.5061 10.0889 10.4746 10.1647C10.4432 10.2406 10.4271 10.3218 10.4271 10.4039C10.4271 10.486 10.4432 10.5673 10.4746 10.6431C10.506 10.7189 10.5521 10.7878 10.6101 10.8459C10.6681 10.9039 10.737 10.95 10.8129 10.9814C10.8887 11.0128 10.97 11.029 11.0521 11.029C11.1341 11.029 11.2154 11.0128 11.2912 10.9814C11.3671 10.95 11.436 10.904 11.494 10.8459Z" fill="black" fill-opacity="0.56"/>
<path d="M21.8333 14C21.6676 14 21.5086 14.0659 21.3914 14.1831C21.2742 14.3003 21.2083 14.4592 21.2083 14.625V20.25H7.45833V14.625C7.45833 14.4592 7.39248 14.3003 7.27527 14.1831C7.15806 14.0658 6.99909 14 6.83333 14C6.66757 14 6.5086 14.0658 6.39139 14.1831C6.27418 14.3003 6.20833 14.4592 6.20833 14.625V20.25C6.20871 20.5814 6.34053 20.8991 6.57486 21.1335C6.8092 21.3678 7.12692 21.4996 7.45833 21.5H21.2083C21.5397 21.4996 21.8575 21.3678 22.0918 21.1335C22.3261 20.8991 22.4579 20.5814 22.4583 20.25V14.625C22.4583 14.4592 22.3925 14.3003 22.2753 14.1831C22.1581 14.0659 21.9991 14 21.8333 14Z" fill="black" fill-opacity="0.56"/>
</svg>
