<svg width="29" height="28" viewBox="0 0 29 28" fill="none" xmlns="http://www.w3.org/2000/svg">
<path d="M11.8333 20.8773H8.08333C7.91757 20.8773 7.7586 20.8115 7.64139 20.6943C7.52418 20.5771 7.45833 20.4181 7.45833 20.2523V16.7612C7.45833 16.6792 7.47449 16.5979 7.5059 16.5221C7.53731 16.4462 7.58335 16.3773 7.64139 16.3193L17.0164 6.94429C17.1336 6.82708 17.2926 6.76123 17.4583 6.76123C17.6241 6.76123 17.7831 6.82708 17.9003 6.94429L21.3914 10.4354C21.5086 10.5526 21.5744 10.7116 21.5744 10.8773C21.5744 11.0431 21.5086 11.2021 21.3914 11.3193L11.8333 20.8773Z" stroke="black" stroke-opacity="0.56" stroke-width="1.5" stroke-linecap="round" stroke-linejoin="round"/>
<path d="M14.9583 9.00244L19.3333 13.3774" stroke="black" stroke-opacity="0.56" stroke-width="1.5" stroke-linecap="round" stroke-linejoin="round"/>
</svg>
