<svg width="29" height="28" viewBox="0 0 29 28" fill="none" xmlns="http://www.w3.org/2000/svg">
<path d="M13.8914 16.317C14.0086 16.4342 14.1676 16.5 14.3333 16.5C14.4991 16.5 14.658 16.4342 14.7753 16.317L18.0565 13.0357C18.1146 12.9777 18.1606 12.9088 18.192 12.833C18.2234 12.7571 18.2396 12.6759 18.2396 12.5938C18.2396 12.5117 18.2234 12.4304 18.192 12.3546C18.1606 12.2788 18.1146 12.2099 18.0565 12.1518C17.9985 12.0938 17.9296 12.0477 17.8538 12.0163C17.778 11.9849 17.6967 11.9687 17.6146 11.9687C17.5325 11.9687 17.4513 11.9849 17.3754 12.0163C17.2996 12.0477 17.2307 12.0937 17.1726 12.1518L14.9583 14.3661V7.12271C14.9583 6.95695 14.8925 6.79798 14.7753 6.68077C14.6581 6.56356 14.4991 6.49771 14.3333 6.49771C14.1676 6.49771 14.0086 6.56356 13.8914 6.68077C13.7742 6.79798 13.7083 6.95695 13.7083 7.12271V14.3661L11.494 12.1518C11.436 12.0937 11.3671 12.0477 11.2912 12.0163C11.2154 11.9849 11.1341 11.9687 11.0521 11.9687C10.8863 11.9687 10.7273 12.0346 10.6101 12.1518C10.4929 12.269 10.4271 12.428 10.4271 12.5938C10.4271 12.7595 10.4929 12.9185 10.6101 13.0357L13.8914 16.317Z" fill="black" fill-opacity="0.56"/>
<path d="M21.8333 14C21.6676 14 21.5086 14.0659 21.3914 14.1831C21.2742 14.3003 21.2083 14.4592 21.2083 14.625V20.25H7.45833V14.625C7.45833 14.4592 7.39248 14.3003 7.27527 14.1831C7.15806 14.0658 6.99909 14 6.83333 14C6.66757 14 6.5086 14.0658 6.39139 14.1831C6.27418 14.3003 6.20833 14.4592 6.20833 14.625V20.25C6.20871 20.5814 6.34053 20.8991 6.57486 21.1335C6.8092 21.3678 7.12692 21.4996 7.45833 21.5H21.2083C21.5397 21.4996 21.8575 21.3678 22.0918 21.1335C22.3261 20.8991 22.4579 20.5814 22.4583 20.25V14.625C22.4583 14.4592 22.3925 14.3003 22.2753 14.1831C22.1581 14.0659 21.9991 14 21.8333 14Z" fill="black" fill-opacity="0.56"/>
</svg>
