<svg width="29" height="28" viewBox="0 0 29 28" fill="none" xmlns="http://www.w3.org/2000/svg">
<path d="M9.33333 16.5024C10.714 16.5024 11.8333 15.3832 11.8333 14.0024C11.8333 12.6217 10.714 11.5024 9.33333 11.5024C7.95262 11.5024 6.83333 12.6217 6.83333 14.0024C6.83333 15.3832 7.95262 16.5024 9.33333 16.5024Z" stroke="black" stroke-opacity="0.56" stroke-width="1.5" stroke-linecap="round" stroke-linejoin="round"/>
<path d="M18.0833 22.1274C19.464 22.1274 20.5833 21.0082 20.5833 19.6274C20.5833 18.2467 19.464 17.1274 18.0833 17.1274C16.7026 17.1274 15.5833 18.2467 15.5833 19.6274C15.5833 21.0082 16.7026 22.1274 18.0833 22.1274Z" stroke="black" stroke-opacity="0.56" stroke-width="1.5" stroke-linecap="round" stroke-linejoin="round"/>
<path d="M18.0833 10.8774C19.464 10.8774 20.5833 9.75815 20.5833 8.37744C20.5833 6.99673 19.464 5.87744 18.0833 5.87744C16.7026 5.87744 15.5833 6.99673 15.5833 8.37744C15.5833 9.75815 16.7026 10.8774 18.0833 10.8774Z" stroke="black" stroke-opacity="0.56" stroke-width="1.5" stroke-linecap="round" stroke-linejoin="round"/>
<path d="M15.98 9.72876L11.4354 12.6503" stroke="black" stroke-opacity="0.56" stroke-width="1.5" stroke-linecap="round" stroke-linejoin="round"/>
<path d="M11.4354 15.3538L15.98 18.2753" stroke="black" stroke-opacity="0.56" stroke-width="1.5" stroke-linecap="round" stroke-linejoin="round"/>
</svg>
