<svg width="70" height="35" viewBox="0 0 70 35" fill="none" xmlns="http://www.w3.org/2000/svg">
<g clip-path="url(#clip0_76_8234)">
<rect y="0.333374" width="70" height="34" rx="4" fill="black" fill-opacity="0.06"/>
<path d="M13.1953 11.8959V23.3334H11.75V13.7006L8.83594 14.7631V13.4584L12.9688 11.8959H13.1953ZM24.7359 16.7396V18.474C24.7359 19.4063 24.6526 20.1927 24.4859 20.8334C24.3193 21.474 24.0797 21.9896 23.7672 22.3802C23.4547 22.7709 23.0771 23.0547 22.6344 23.2318C22.1969 23.4037 21.7021 23.4896 21.15 23.4896C20.7125 23.4896 20.3089 23.4349 19.9391 23.3256C19.5693 23.2162 19.2359 23.0417 18.9391 22.8021C18.6474 22.5573 18.3974 22.2396 18.1891 21.849C17.9807 21.4584 17.8219 20.9844 17.7125 20.4271C17.6031 19.8698 17.5484 19.2188 17.5484 18.474V16.7396C17.5484 15.8073 17.6318 15.0261 17.7984 14.3959C17.9703 13.7657 18.2125 13.2605 18.525 12.8802C18.8375 12.4948 19.2125 12.2188 19.65 12.0521C20.0927 11.8855 20.5875 11.8021 21.1344 11.8021C21.5771 11.8021 21.9833 11.8568 22.3531 11.9662C22.7281 12.0704 23.0615 12.2396 23.3531 12.474C23.6448 12.7032 23.8922 13.0105 24.0953 13.3959C24.3036 13.7761 24.4625 14.2422 24.5719 14.7943C24.6812 15.3464 24.7359 15.9948 24.7359 16.7396ZM23.2828 18.7084V16.4974C23.2828 15.987 23.2516 15.5391 23.1891 15.1537C23.1318 14.7631 23.0458 14.4297 22.9312 14.1537C22.8167 13.8776 22.6708 13.6537 22.4937 13.4818C22.3219 13.3099 22.1214 13.1849 21.8922 13.1068C21.6682 13.0235 21.4156 12.9818 21.1344 12.9818C20.7906 12.9818 20.4859 13.0469 20.2203 13.1771C19.9547 13.3021 19.7307 13.5026 19.5484 13.7787C19.3714 14.0547 19.2359 14.4167 19.1422 14.8646C19.0484 15.3125 19.0016 15.8568 19.0016 16.4974V18.7084C19.0016 19.2188 19.0302 19.6693 19.0875 20.0599C19.15 20.4506 19.2411 20.7891 19.3609 21.0756C19.4807 21.3568 19.6266 21.5886 19.7984 21.7709C19.9703 21.9532 20.1682 22.0886 20.3922 22.1771C20.6214 22.2605 20.874 22.3021 21.15 22.3021C21.5042 22.3021 21.8141 22.2344 22.0797 22.099C22.3453 21.9636 22.5667 21.7526 22.7437 21.4662C22.926 21.1745 23.0615 20.8021 23.15 20.349C23.2385 19.8907 23.2828 19.3438 23.2828 18.7084ZM36.0047 21.8881V17.5365C36.0047 17.2032 35.937 16.9141 35.8016 16.6693C35.6714 16.4193 35.4734 16.2266 35.2078 16.0912C34.9422 15.9558 34.6141 15.8881 34.2234 15.8881C33.8589 15.8881 33.5385 15.9506 33.2625 16.0756C32.9917 16.2006 32.7781 16.3646 32.6219 16.5677C32.4708 16.7709 32.3953 16.9896 32.3953 17.224H30.95C30.95 16.9219 31.0281 16.6224 31.1844 16.3256C31.3406 16.0287 31.5646 15.7605 31.8563 15.5209C32.1531 15.2761 32.5073 15.0834 32.9188 14.9427C33.3354 14.7969 33.799 14.724 34.3094 14.724C34.924 14.724 35.4656 14.8282 35.9344 15.0365C36.4083 15.2448 36.7781 15.5599 37.0438 15.9818C37.3146 16.3985 37.45 16.9219 37.45 17.5521V21.4896C37.45 21.7709 37.4734 22.0704 37.5203 22.3881C37.5724 22.7058 37.6479 22.9792 37.7469 23.2084V23.3334H36.2391C36.1661 23.1667 36.1089 22.9454 36.0672 22.6693C36.0255 22.3881 36.0047 22.1276 36.0047 21.8881ZM36.2547 18.2084L36.2703 19.224H34.8094C34.3979 19.224 34.0307 19.2579 33.7078 19.3256C33.3849 19.3881 33.1141 19.4844 32.8953 19.6146C32.6766 19.7448 32.5099 19.9089 32.3953 20.1068C32.2807 20.2995 32.2234 20.5261 32.2234 20.7865C32.2234 21.0521 32.2833 21.2943 32.4031 21.5131C32.5229 21.7318 32.7026 21.9063 32.9422 22.0365C33.187 22.1615 33.4865 22.224 33.8406 22.224C34.2833 22.224 34.674 22.1302 35.0125 21.9427C35.351 21.7552 35.6193 21.5261 35.8172 21.2552C36.0203 20.9844 36.1297 20.7214 36.1453 20.4662L36.7625 21.1615C36.726 21.3802 36.6271 21.6224 36.4656 21.8881C36.3042 22.1537 36.088 22.4089 35.8172 22.6537C35.5516 22.8933 35.2339 23.0938 34.8641 23.2552C34.4995 23.4115 34.088 23.4896 33.6297 23.4896C33.0568 23.4896 32.5542 23.3776 32.1219 23.1537C31.6948 22.9297 31.3615 22.6302 31.1219 22.2552C30.8875 21.875 30.7703 21.4506 30.7703 20.9818C30.7703 20.5287 30.8589 20.1302 31.0359 19.7865C31.213 19.4375 31.4682 19.1485 31.8016 18.9193C32.1349 18.6849 32.5359 18.5079 33.0047 18.3881C33.4734 18.2683 33.9969 18.2084 34.575 18.2084H36.2547ZM39.8969 22.5677C39.8969 22.323 39.9724 22.1172 40.1234 21.9506C40.2797 21.7787 40.5036 21.6927 40.7953 21.6927C41.087 21.6927 41.3083 21.7787 41.4594 21.9506C41.6156 22.1172 41.6938 22.323 41.6938 22.5677C41.6938 22.8073 41.6156 23.0105 41.4594 23.1771C41.3083 23.3438 41.087 23.4271 40.7953 23.4271C40.5036 23.4271 40.2797 23.3438 40.1234 23.1771C39.9724 23.0105 39.8969 22.8073 39.8969 22.5677ZM45.6797 16.5599V23.3334H44.2266V14.8802H45.6016L45.6797 16.5599ZM45.3828 18.7865L44.7109 18.7631C44.7161 18.1849 44.7917 17.6511 44.9375 17.1615C45.0833 16.6667 45.2995 16.237 45.5859 15.8724C45.8724 15.5079 46.2292 15.2266 46.6562 15.0287C47.0833 14.8256 47.5781 14.724 48.1406 14.724C48.5365 14.724 48.901 14.7813 49.2344 14.8959C49.5677 15.0052 49.8568 15.1797 50.1016 15.4193C50.3464 15.6589 50.5365 15.9662 50.6719 16.3412C50.8073 16.7162 50.875 17.1693 50.875 17.7006V23.3334H49.4297V17.7709C49.4297 17.3282 49.3542 16.974 49.2031 16.7084C49.0573 16.4427 48.849 16.25 48.5781 16.1302C48.3073 16.0052 47.9896 15.9427 47.625 15.9427C47.1979 15.9427 46.8411 16.0183 46.5547 16.1693C46.2682 16.3204 46.0391 16.5287 45.8672 16.7943C45.6953 17.0599 45.5703 17.3646 45.4922 17.7084C45.4193 18.0469 45.3828 18.4063 45.3828 18.7865ZM50.8594 17.9896L49.8906 18.2865C49.8958 17.823 49.9714 17.3776 50.1172 16.9506C50.2682 16.5235 50.4844 16.1433 50.7656 15.8099C51.0521 15.4766 51.4036 15.2136 51.8203 15.0209C52.237 14.823 52.7135 14.724 53.25 14.724C53.7031 14.724 54.1042 14.7839 54.4531 14.9037C54.8073 15.0235 55.1042 15.2084 55.3438 15.4584C55.5885 15.7032 55.7734 16.0183 55.8984 16.4037C56.0234 16.7891 56.0859 17.2474 56.0859 17.7787V23.3334H54.6328V17.7631C54.6328 17.2891 54.5573 16.9219 54.4062 16.6615C54.2604 16.3959 54.0521 16.211 53.7812 16.1068C53.5156 15.9974 53.1979 15.9427 52.8281 15.9427C52.5104 15.9427 52.2292 15.9974 51.9844 16.1068C51.7396 16.2162 51.5339 16.3672 51.3672 16.5599C51.2005 16.7474 51.0729 16.9636 50.9844 17.2084C50.901 17.4532 50.8594 17.7136 50.8594 17.9896ZM58.4469 22.5677C58.4469 22.323 58.5224 22.1172 58.6734 21.9506C58.8297 21.7787 59.0536 21.6927 59.3453 21.6927C59.637 21.6927 59.8583 21.7787 60.0094 21.9506C60.1656 22.1172 60.2438 22.323 60.2438 22.5677C60.2438 22.8073 60.1656 23.0105 60.0094 23.1771C59.8583 23.3438 59.637 23.4271 59.3453 23.4271C59.0536 23.4271 58.8297 23.3438 58.6734 23.1771C58.5224 23.0105 58.4469 22.8073 58.4469 22.5677Z" fill="black" fill-opacity="0.87"/>
</g>
<defs>
<clipPath id="clip0_76_8234">
<rect y="0.333374" width="70" height="34" rx="4" fill="white"/>
</clipPath>
</defs>
</svg>
