<svg width="70" height="35" viewBox="0 0 70 35" fill="none" xmlns="http://www.w3.org/2000/svg">
<g clip-path="url(#clip0_78_1009)">
<rect y="0.333374" width="70" height="34" rx="4" fill="black" fill-opacity="0.06"/>
<path d="M18.4922 11.9427H18.6172V13.1693H18.4922C17.7266 13.1693 17.0859 13.2943 16.5703 13.5443C16.0547 13.7891 15.6458 14.1198 15.3438 14.5365C15.0417 14.948 14.8229 15.4115 14.6875 15.9271C14.5573 16.4427 14.4922 16.9662 14.4922 17.4974V19.1693C14.4922 19.6745 14.5521 20.1224 14.6719 20.5131C14.7917 20.8985 14.9557 21.224 15.1641 21.4896C15.3724 21.7552 15.6068 21.9558 15.8672 22.0912C16.1328 22.2266 16.4089 22.2943 16.6953 22.2943C17.0286 22.2943 17.3255 22.2318 17.5859 22.1068C17.8464 21.9766 18.0651 21.7969 18.2422 21.5677C18.4245 21.3334 18.5625 21.0573 18.6562 20.7396C18.75 20.4219 18.7969 20.073 18.7969 19.6927C18.7969 19.3542 18.7552 19.0287 18.6719 18.7162C18.5885 18.3985 18.4609 18.1172 18.2891 17.8724C18.1172 17.6224 17.901 17.4271 17.6406 17.2865C17.3854 17.1407 17.0807 17.0677 16.7266 17.0677C16.3255 17.0677 15.9505 17.1667 15.6016 17.3646C15.2578 17.5573 14.974 17.8125 14.75 18.1302C14.5312 18.4427 14.4062 18.7839 14.375 19.1537L13.6094 19.1459C13.6823 18.5625 13.8177 18.0651 14.0156 17.6537C14.2188 17.237 14.4688 16.8985 14.7656 16.6381C15.0677 16.3724 15.4036 16.1797 15.7734 16.0599C16.1484 15.9349 16.5443 15.8724 16.9609 15.8724C17.5286 15.8724 18.0182 15.9792 18.4297 16.1927C18.8411 16.4063 19.1797 16.6927 19.4453 17.0521C19.7109 17.4063 19.9062 17.8073 20.0312 18.2552C20.1615 18.698 20.2266 19.1537 20.2266 19.6224C20.2266 20.1589 20.151 20.6615 20 21.1302C19.849 21.599 19.6224 22.0105 19.3203 22.3646C19.0234 22.7188 18.6562 22.9948 18.2188 23.1927C17.7812 23.3907 17.2734 23.4896 16.6953 23.4896C16.0807 23.4896 15.5443 23.3646 15.0859 23.1146C14.6276 22.8594 14.2474 22.5209 13.9453 22.099C13.6432 21.6771 13.4167 21.2084 13.2656 20.6927C13.1146 20.1771 13.0391 19.6537 13.0391 19.1224V18.4427C13.0391 17.6407 13.1198 16.8542 13.2812 16.0834C13.4427 15.3125 13.7214 14.6146 14.1172 13.9896C14.5182 13.3646 15.0729 12.8672 15.7812 12.4974C16.4896 12.1276 17.3932 11.9427 18.4922 11.9427ZM27.8156 16.5052V26.5834H26.3625V14.8802H27.6906L27.8156 16.5052ZM33.5109 19.0365V19.2006C33.5109 19.8151 33.438 20.3855 33.2922 20.9115C33.1464 21.4323 32.9328 21.8855 32.6516 22.2709C32.3755 22.6563 32.0344 22.9558 31.6281 23.1693C31.2219 23.3829 30.7557 23.4896 30.2297 23.4896C29.6932 23.4896 29.2193 23.4011 28.8078 23.224C28.3964 23.0469 28.0474 22.7891 27.7609 22.4506C27.4745 22.112 27.2453 21.7058 27.0734 21.2318C26.9068 20.7579 26.7922 20.224 26.7297 19.6302V18.7552C26.7922 18.1302 26.9094 17.5704 27.0813 17.0756C27.2531 16.5808 27.4797 16.1589 27.7609 15.8099C28.0474 15.4558 28.3938 15.1875 28.8 15.0052C29.2063 14.8177 29.675 14.724 30.2063 14.724C30.7375 14.724 31.2089 14.8282 31.6203 15.0365C32.0318 15.2396 32.3781 15.5313 32.6594 15.9115C32.9406 16.2917 33.1516 16.7474 33.2922 17.2787C33.438 17.8047 33.5109 18.3907 33.5109 19.0365ZM32.0578 19.2006V19.0365C32.0578 18.6146 32.0135 18.2188 31.925 17.849C31.8365 17.474 31.6984 17.1459 31.5109 16.8646C31.3286 16.5782 31.0943 16.3542 30.8078 16.1927C30.5214 16.0261 30.1802 15.9427 29.7844 15.9427C29.4198 15.9427 29.1021 16.0052 28.8313 16.1302C28.5656 16.2552 28.3391 16.4245 28.1516 16.6381C27.9641 16.8464 27.8104 17.086 27.6906 17.3568C27.576 17.6224 27.4901 17.8985 27.4328 18.1849V20.2084C27.537 20.573 27.6828 20.9167 27.8703 21.2396C28.0578 21.5573 28.3078 21.8151 28.6203 22.0131C28.9328 22.2058 29.326 22.3021 29.8 22.3021C30.1906 22.3021 30.5266 22.2214 30.8078 22.0599C31.0943 21.8933 31.3286 21.6667 31.5109 21.3802C31.6984 21.0938 31.8365 20.7657 31.925 20.3959C32.0135 20.0209 32.0578 19.6224 32.0578 19.2006ZM35.5281 22.5677C35.5281 22.323 35.6036 22.1172 35.7547 21.9506C35.9109 21.7787 36.1349 21.6927 36.4266 21.6927C36.7182 21.6927 36.9396 21.7787 37.0906 21.9506C37.2469 22.1172 37.325 22.323 37.325 22.5677C37.325 22.8073 37.2469 23.0105 37.0906 23.1771C36.9396 23.3438 36.7182 23.4271 36.4266 23.4271C36.1349 23.4271 35.9109 23.3438 35.7547 23.1771C35.6036 23.0105 35.5281 22.8073 35.5281 22.5677ZM41.3109 16.5599V23.3334H39.8578V14.8802H41.2328L41.3109 16.5599ZM41.0141 18.7865L40.3422 18.7631C40.3474 18.1849 40.4229 17.6511 40.5688 17.1615C40.7146 16.6667 40.9307 16.237 41.2172 15.8724C41.5036 15.5079 41.8604 15.2266 42.2875 15.0287C42.7146 14.8256 43.2094 14.724 43.7719 14.724C44.1677 14.724 44.5323 14.7813 44.8656 14.8959C45.199 15.0052 45.488 15.1797 45.7328 15.4193C45.9776 15.6589 46.1677 15.9662 46.3031 16.3412C46.4385 16.7162 46.5063 17.1693 46.5063 17.7006V23.3334H45.0609V17.7709C45.0609 17.3282 44.9854 16.974 44.8344 16.7084C44.6885 16.4427 44.4802 16.25 44.2094 16.1302C43.9385 16.0052 43.6208 15.9427 43.2563 15.9427C42.8292 15.9427 42.4724 16.0183 42.1859 16.1693C41.8995 16.3204 41.6703 16.5287 41.4984 16.7943C41.3266 17.0599 41.2016 17.3646 41.1234 17.7084C41.0505 18.0469 41.0141 18.4063 41.0141 18.7865ZM46.4906 17.9896L45.5219 18.2865C45.5271 17.823 45.6026 17.3776 45.7484 16.9506C45.8995 16.5235 46.1156 16.1433 46.3969 15.8099C46.6833 15.4766 47.0349 15.2136 47.4516 15.0209C47.8682 14.823 48.3448 14.724 48.8813 14.724C49.3344 14.724 49.7354 14.7839 50.0844 14.9037C50.4385 15.0235 50.7354 15.2084 50.975 15.4584C51.2198 15.7032 51.4047 16.0183 51.5297 16.4037C51.6547 16.7891 51.7172 17.2474 51.7172 17.7787V23.3334H50.2641V17.7631C50.2641 17.2891 50.1885 16.9219 50.0375 16.6615C49.8917 16.3959 49.6833 16.211 49.4125 16.1068C49.1469 15.9974 48.8292 15.9427 48.4594 15.9427C48.1417 15.9427 47.8604 15.9974 47.6156 16.1068C47.3708 16.2162 47.1651 16.3672 46.9984 16.5599C46.8318 16.7474 46.7042 16.9636 46.6156 17.2084C46.5323 17.4532 46.4906 17.7136 46.4906 17.9896ZM54.0781 22.5677C54.0781 22.323 54.1536 22.1172 54.3047 21.9506C54.4609 21.7787 54.6849 21.6927 54.9766 21.6927C55.2682 21.6927 55.4896 21.7787 55.6406 21.9506C55.7969 22.1172 55.875 22.323 55.875 22.5677C55.875 22.8073 55.7969 23.0105 55.6406 23.1771C55.4896 23.3438 55.2682 23.4271 54.9766 23.4271C54.6849 23.4271 54.4609 23.3438 54.3047 23.1771C54.1536 23.0105 54.0781 22.8073 54.0781 22.5677Z" fill="black" fill-opacity="0.87"/>
</g>
<defs>
<clipPath id="clip0_78_1009">
<rect y="0.333374" width="70" height="34" rx="4" fill="white"/>
</clipPath>
</defs>
</svg>
