<svg width="24" height="25" viewBox="0 0 24 25" fill="none" xmlns="http://www.w3.org/2000/svg">
<path d="M14.25 20.25C14.25 21.4926 13.2426 22.5 12 22.5C10.7574 22.5 9.75 21.4926 9.75 20.25C9.75 19.0074 10.7574 18 12 18C13.2426 18 14.25 19.0074 14.25 20.25ZM14.25 12.75C14.25 13.9926 13.2426 15 12 15C10.7574 15 9.75 13.9926 9.75 12.75C9.75 11.5074 10.7574 10.5 12 10.5C13.2426 10.5 14.25 11.5074 14.25 12.75ZM14.25 5.25C14.25 6.49264 13.2426 7.5 12 7.5C10.7574 7.5 9.75 6.49264 9.75 5.25C9.75 4.00736 10.7574 3 12 3C13.2426 3 14.25 4.00736 14.25 5.25Z" fill="#707070"/>
</svg>
