<svg width="135" height="26" viewBox="0 0 135 26" fill="none" xmlns="http://www.w3.org/2000/svg">
<path d="M15.8243 9.25012C15.8243 11.3212 14.1454 13.0001 12.0743 13.0001C10.0032 13.0001 8.3243 11.3212 8.3243 9.25012C8.3243 7.17906 10.0032 5.50012 12.0743 5.50012C14.1454 5.50012 15.8243 7.17906 15.8243 9.25012ZM12.0743 11.7501C13.455 11.7501 14.5743 10.6308 14.5743 9.25012C14.5743 7.86941 13.455 6.75012 12.0743 6.75012C10.6936 6.75012 9.57431 7.86941 9.57431 9.25012C9.57431 10.6308 10.6936 11.7501 12.0743 11.7501Z" fill="#30628C"/>
<path d="M12.3944 20.5001C12.2532 20.1008 12.1559 19.6807 12.1082 19.2458H5.8243C5.82609 18.9373 6.0165 18.0132 6.86443 17.1653C7.67975 16.3499 9.21291 15.5001 12.0743 15.5001C12.3999 15.5001 12.7083 15.5111 13.0005 15.5318C13.2819 15.1052 13.6199 14.7191 14.0038 14.3843C13.4207 14.2978 12.7793 14.2501 12.0743 14.2501C5.82431 14.2501 4.5743 18.0001 4.5743 19.2501C4.5743 20.5001 5.8243 20.5001 5.8243 20.5001H12.3944Z" fill="#30628C"/>
<path d="M16.9311 14.8246C17.1569 14.0586 18.2417 14.0586 18.4675 14.8246L18.5222 15.0103C18.6665 15.4997 19.2254 15.7312 19.6735 15.4872L19.8435 15.3945C20.5447 15.0126 21.3118 15.7797 20.9299 16.4809L20.8373 16.6509C20.5932 17.099 20.8248 17.658 21.3141 17.8022L21.4999 17.8569C22.2658 18.0827 22.2658 19.1675 21.4999 19.3933L21.3141 19.448C20.8248 19.5923 20.5932 20.1513 20.8373 20.5993L20.9299 20.7694C21.3118 21.4706 20.5447 22.2377 19.8435 21.8557L19.6735 21.7631C19.2254 21.519 18.6665 21.7506 18.5222 22.24L18.4675 22.4257C18.2417 23.1916 17.1569 23.1916 16.9311 22.4257L16.8764 22.24C16.7321 21.7506 16.1732 21.519 15.7251 21.7631L15.5551 21.8557C14.8539 22.2377 14.0868 21.4706 14.4687 20.7694L14.5613 20.5993C14.8054 20.1513 14.5739 19.5923 14.0845 19.448L13.8987 19.3933C13.1328 19.1675 13.1328 18.0827 13.8987 17.8569L14.0845 17.8022C14.5739 17.658 14.8054 17.099 14.5613 16.6509L14.4687 16.4809C14.0868 15.7797 14.8539 15.0126 15.5551 15.3945L15.7251 15.4872C16.1732 15.7312 16.7321 15.4997 16.8764 15.0103L16.9311 14.8246ZM19.5743 18.6251C19.5743 17.5896 18.7348 16.7501 17.6993 16.7501C16.6638 16.7501 15.8243 17.5896 15.8243 18.6251C15.8243 19.6607 16.6638 20.5001 17.6993 20.5001C18.7348 20.5001 19.5743 19.6607 19.5743 18.6251Z" fill="#30628C"/>
<path d="M38.6943 15.2534C38.6943 15.0337 38.6602 14.8384 38.5918 14.6675C38.5283 14.4966 38.4136 14.3403 38.2476 14.1987C38.0815 14.0571 37.8472 13.9204 37.5444 13.7886C37.2466 13.6519 36.8657 13.5127 36.4019 13.3711C35.894 13.2148 35.4253 13.0415 34.9956 12.8511C34.5708 12.6558 34.1997 12.4312 33.8823 12.1772C33.5649 11.9185 33.3184 11.623 33.1426 11.291C32.9668 10.9541 32.8789 10.5659 32.8789 10.1265C32.8789 9.69189 32.9692 9.29639 33.1499 8.93994C33.3354 8.5835 33.5967 8.27588 33.9336 8.01709C34.2754 7.75342 34.6782 7.55078 35.1421 7.40918C35.606 7.2627 36.1187 7.18945 36.6802 7.18945C37.4712 7.18945 38.1523 7.33594 38.7236 7.62891C39.2998 7.92188 39.7417 8.31494 40.0493 8.80811C40.3618 9.30127 40.5181 9.8457 40.5181 10.4414H38.6943C38.6943 10.0898 38.6187 9.77979 38.4673 9.51123C38.3208 9.23779 38.0962 9.02295 37.7935 8.8667C37.4956 8.71045 37.1172 8.63232 36.6582 8.63232C36.2236 8.63232 35.8623 8.69824 35.5742 8.83008C35.2861 8.96191 35.0713 9.14014 34.9297 9.36475C34.7881 9.58936 34.7173 9.84326 34.7173 10.1265C34.7173 10.3267 34.7637 10.5098 34.8564 10.6758C34.9492 10.8369 35.0908 10.9883 35.2812 11.1299C35.4717 11.2666 35.7109 11.396 35.999 11.5181C36.2871 11.6401 36.6265 11.7573 37.0171 11.8696C37.6079 12.0454 38.123 12.2407 38.5625 12.4556C39.002 12.6655 39.3682 12.9048 39.6611 13.1733C39.9541 13.4419 40.1738 13.7471 40.3203 14.0889C40.4668 14.4258 40.54 14.8091 40.54 15.2388C40.54 15.688 40.4497 16.0933 40.269 16.4546C40.0884 16.811 39.8296 17.1162 39.4927 17.3701C39.1606 17.6191 38.7603 17.812 38.2915 17.9487C37.8276 18.0806 37.3101 18.1465 36.7388 18.1465C36.2261 18.1465 35.7207 18.0781 35.2227 17.9414C34.7295 17.8047 34.2803 17.5972 33.875 17.3188C33.4697 17.0356 33.1475 16.6841 32.9082 16.2642C32.6689 15.8394 32.5493 15.3438 32.5493 14.7773H34.3877C34.3877 15.124 34.4463 15.4194 34.5635 15.6636C34.6855 15.9077 34.854 16.1079 35.0688 16.2642C35.2837 16.4155 35.5327 16.5278 35.8159 16.6011C36.104 16.6743 36.4116 16.7109 36.7388 16.7109C37.1685 16.7109 37.5273 16.6499 37.8154 16.5278C38.1084 16.4058 38.3281 16.2349 38.4746 16.0151C38.6211 15.7954 38.6943 15.5415 38.6943 15.2534ZM48.6099 7.33594H50.441V14.4624C50.441 15.2729 50.2652 15.9517 49.9136 16.4985C49.5621 17.0454 49.0835 17.458 48.4781 17.7363C47.8775 18.0098 47.2061 18.1465 46.4639 18.1465C45.6973 18.1465 45.0137 18.0098 44.4131 17.7363C43.8125 17.458 43.3389 17.0454 42.9922 16.4985C42.6504 15.9517 42.4795 15.2729 42.4795 14.4624V7.33594H44.3106V14.4624C44.3106 14.9751 44.3985 15.3975 44.5743 15.7295C44.75 16.0566 44.9991 16.2983 45.3213 16.4546C45.6436 16.6108 46.0245 16.689 46.4639 16.689C46.9034 16.689 47.2818 16.6108 47.5992 16.4546C47.9214 16.2983 48.1704 16.0566 48.3462 15.7295C48.522 15.3975 48.6099 14.9751 48.6099 14.4624V7.33594ZM56.9508 14.0229H54.1749V12.5654H56.9508C57.4342 12.5654 57.8248 12.4873 58.1226 12.3311C58.4205 12.1748 58.6378 11.96 58.7745 11.6865C58.9161 11.4082 58.9869 11.0908 58.9869 10.7344C58.9869 10.3975 58.9161 10.0825 58.7745 9.78955C58.6378 9.4917 58.4205 9.25244 58.1226 9.07178C57.8248 8.89111 57.4342 8.80078 56.9508 8.80078H54.7388V18H52.9005V7.33594H56.9508C57.776 7.33594 58.4766 7.48242 59.0528 7.77539C59.6339 8.06348 60.0758 8.46387 60.3785 8.97656C60.6812 9.48438 60.8326 10.0654 60.8326 10.7197C60.8326 11.4082 60.6812 11.999 60.3785 12.4922C60.0758 12.9854 59.6339 13.3638 59.0528 13.6274C58.4766 13.8911 57.776 14.0229 56.9508 14.0229ZM69.9205 16.5425V18H64.2589V16.5425H69.9205ZM64.7789 7.33594V18H62.9405V7.33594H64.7789ZM69.1808 11.7891V13.2246H64.2589V11.7891H69.1808ZM69.8839 7.33594V8.80078H64.2589V7.33594H69.8839ZM71.882 7.33594H75.654C76.4645 7.33594 77.1554 7.45801 77.7267 7.70215C78.298 7.94629 78.735 8.30762 79.0378 8.78613C79.3454 9.25977 79.4992 9.8457 79.4992 10.5439C79.4992 11.0762 79.4015 11.5449 79.2062 11.9502C79.0109 12.3555 78.735 12.6973 78.3786 12.9756C78.0221 13.249 77.5973 13.4614 77.1042 13.6128L76.5475 13.8838H73.1564L73.1418 12.4263H75.6833C76.1227 12.4263 76.4889 12.3481 76.7819 12.1919C77.0749 12.0356 77.2946 11.8232 77.4411 11.5547C77.5924 11.2812 77.6681 10.9736 77.6681 10.6318C77.6681 10.2607 77.5949 9.93848 77.4484 9.66504C77.3068 9.38672 77.0871 9.17432 76.7892 9.02783C76.4914 8.87646 76.1129 8.80078 75.654 8.80078H73.7204V18H71.882V7.33594ZM77.9684 18L75.4635 13.21L77.3898 13.2026L79.9313 17.9048V18H77.9684ZM90.1384 8.75684L86.9524 18H85.0261L89.0398 7.33594H90.2703L90.1384 8.75684ZM92.8044 18L89.6111 8.75684L89.4719 7.33594H90.7097L94.738 18H92.8044ZM92.6506 14.0449V15.5024H86.8498V14.0449H92.6506ZM99.49 18H97.2122L97.2268 16.5425H99.49C100.149 16.5425 100.701 16.3984 101.145 16.1104C101.595 15.8223 101.931 15.4097 102.156 14.8726C102.386 14.3354 102.5 13.6958 102.5 12.9536V12.375C102.5 11.7988 102.434 11.2886 102.303 10.8442C102.176 10.3999 101.985 10.0264 101.731 9.72363C101.482 9.4209 101.175 9.19141 100.808 9.03516C100.447 8.87891 100.03 8.80078 99.5559 8.80078H97.1682V7.33594H99.5559C100.264 7.33594 100.911 7.45557 101.497 7.69482C102.083 7.9292 102.588 8.26855 103.013 8.71289C103.443 9.15723 103.772 9.68945 104.002 10.3096C104.231 10.9297 104.346 11.623 104.346 12.3896V12.9536C104.346 13.7202 104.231 14.4136 104.002 15.0337C103.772 15.6538 103.443 16.186 103.013 16.6304C102.583 17.0698 102.071 17.4092 101.475 17.6484C100.884 17.8828 100.222 18 99.49 18ZM98.2303 7.33594V18H96.3919V7.33594H98.2303ZM107.399 7.33594H109.039L112.123 15.561L115.199 7.33594H116.84L112.767 18H111.464L107.399 7.33594ZM106.652 7.33594H108.212L108.483 14.4551V18H106.652V7.33594ZM116.027 7.33594H117.594V18H115.756V14.4551L116.027 7.33594ZM122.2 7.33594V18H120.361V7.33594H122.2ZM133.404 7.33594V18H131.566L126.783 10.3608V18H124.945V7.33594H126.783L131.58 14.9897V7.33594H133.404Z" fill="#30628C"/>
</svg>
