<svg width="24" height="25" viewBox="0 0 24 25" fill="none" xmlns="http://www.w3.org/2000/svg">
<path d="M12 6C12 5.58579 11.6642 5.25 11.25 5.25C10.8358 5.25 10.5 5.58579 10.5 6V14.25C10.5 14.5191 10.6442 14.7677 10.8779 14.9012L16.1279 17.9012C16.4875 18.1067 16.9457 17.9817 17.1512 17.6221C17.3567 17.2625 17.2317 16.8043 16.8721 16.5988L12 13.8148V6Z" fill="#707070"/>
<path d="M12 24.75C18.6274 24.75 24 19.3774 24 12.75C24 6.12258 18.6274 0.75 12 0.75C5.37258 0.75 0 6.12258 0 12.75C0 19.3774 5.37258 24.75 12 24.75ZM22.5 12.75C22.5 18.549 17.799 23.25 12 23.25C6.20101 23.25 1.5 18.549 1.5 12.75C1.5 6.95101 6.20101 2.25 12 2.25C17.799 2.25 22.5 6.95101 22.5 12.75Z" fill="#707070"/>
</svg>
