<svg width="70" height="35" viewBox="0 0 70 35" fill="none" xmlns="http://www.w3.org/2000/svg">
<g clip-path="url(#clip0_76_8232)">
<rect y="0.166626" width="70" height="34" rx="4" fill="black" fill-opacity="0.06"/>
<path d="M15.8281 11.7916V23.1666H14.3203V11.7916H15.8281ZM20.5938 16.9088V18.1432H15.5V16.9088H20.5938ZM21.3672 11.7916V13.026H15.5V11.7916H21.3672ZM24.6656 14.7135V23.1666H23.2125V14.7135H24.6656ZM23.1031 12.4713C23.1031 12.2369 23.1734 12.039 23.3141 11.8776C23.4599 11.7161 23.6734 11.6354 23.9547 11.6354C24.2307 11.6354 24.4417 11.7161 24.5875 11.8776C24.7385 12.039 24.8141 12.2369 24.8141 12.4713C24.8141 12.6953 24.7385 12.888 24.5875 13.0494C24.4417 13.2057 24.2307 13.2838 23.9547 13.2838C23.6734 13.2838 23.4599 13.2057 23.3141 13.0494C23.1734 12.888 23.1031 12.6953 23.1031 12.4713ZM28.5813 16.5182V23.1666H27.1359V14.7135H28.5031L28.5813 16.5182ZM28.2375 18.6198L27.6359 18.5963C27.6411 18.0182 27.7271 17.4843 27.8938 16.9948C28.0604 16.5 28.2948 16.0703 28.5969 15.7057C28.899 15.3411 29.2583 15.0599 29.675 14.8619C30.0969 14.6588 30.563 14.5573 31.0734 14.5573C31.4901 14.5573 31.8651 14.6145 32.1984 14.7291C32.5318 14.8385 32.8156 15.0156 33.05 15.2604C33.2896 15.5052 33.4719 15.8229 33.5969 16.2135C33.7219 16.5989 33.7844 17.0703 33.7844 17.6276V23.1666H32.3313V17.6119C32.3313 17.1692 32.2661 16.8151 32.1359 16.5494C32.0057 16.2786 31.8156 16.0833 31.5656 15.9635C31.3156 15.8385 31.0083 15.776 30.6438 15.776C30.2844 15.776 29.9563 15.8515 29.6594 16.0026C29.3677 16.1536 29.1151 16.3619 28.9016 16.6276C28.6932 16.8932 28.5292 17.1979 28.4094 17.5416C28.2948 17.8802 28.2375 18.2395 28.2375 18.6198ZM37.7 14.7135V23.1666H36.2469V14.7135H37.7ZM36.1375 12.4713C36.1375 12.2369 36.2078 12.039 36.3484 11.8776C36.4943 11.7161 36.7078 11.6354 36.9891 11.6354C37.2651 11.6354 37.476 11.7161 37.6219 11.8776C37.7729 12.039 37.8484 12.2369 37.8484 12.4713C37.8484 12.6953 37.7729 12.888 37.6219 13.0494C37.476 13.2057 37.2651 13.2838 36.9891 13.2838C36.7078 13.2838 36.4943 13.2057 36.3484 13.0494C36.2078 12.888 36.1375 12.6953 36.1375 12.4713ZM45.0922 20.9244C45.0922 20.7161 45.0453 20.5234 44.9516 20.3463C44.863 20.164 44.6781 20 44.3969 19.8541C44.1208 19.7031 43.7042 19.5729 43.1469 19.4635C42.6781 19.3645 42.2536 19.2474 41.8734 19.1119C41.4984 18.9765 41.1781 18.8125 40.9125 18.6198C40.6521 18.427 40.4516 18.2005 40.3109 17.9401C40.1703 17.6796 40.1 17.375 40.1 17.026C40.1 16.6927 40.1729 16.3776 40.3188 16.0807C40.4698 15.7838 40.6807 15.5208 40.9516 15.2916C41.2276 15.0625 41.5583 14.8828 41.9438 14.7526C42.3292 14.6224 42.7589 14.5573 43.2328 14.5573C43.9099 14.5573 44.488 14.677 44.9672 14.9166C45.4464 15.1562 45.8135 15.4765 46.0688 15.8776C46.324 16.2734 46.4516 16.7135 46.4516 17.1979H45.0063C45.0063 16.9635 44.9359 16.7369 44.7953 16.5182C44.6599 16.2942 44.4594 16.1093 44.1938 15.9635C43.9333 15.8177 43.613 15.7448 43.2328 15.7448C42.8318 15.7448 42.5063 15.8073 42.2563 15.9323C42.0115 16.052 41.8318 16.2057 41.7172 16.3932C41.6078 16.5807 41.5531 16.7786 41.5531 16.9869C41.5531 17.1432 41.5792 17.2838 41.6313 17.4088C41.6885 17.5286 41.7875 17.6406 41.9281 17.7448C42.0688 17.8437 42.2667 17.9375 42.5219 18.026C42.7771 18.1145 43.1026 18.2031 43.4984 18.2916C44.1911 18.4479 44.7615 18.6354 45.2094 18.8541C45.6573 19.0729 45.9906 19.3411 46.2094 19.6588C46.4281 19.9765 46.5375 20.3619 46.5375 20.8151C46.5375 21.1849 46.4594 21.5234 46.3031 21.8307C46.1521 22.138 45.9307 22.4036 45.6391 22.6276C45.3526 22.8463 45.0089 23.0182 44.6078 23.1432C44.212 23.263 43.7667 23.3229 43.2719 23.3229C42.5271 23.3229 41.8969 23.1901 41.3813 22.9244C40.8656 22.6588 40.475 22.3151 40.2094 21.8932C39.9438 21.4713 39.8109 21.026 39.8109 20.5573H41.2641C41.2849 20.9531 41.3995 21.2682 41.6078 21.5026C41.8161 21.7317 42.0714 21.8958 42.3734 21.9948C42.6755 22.0885 42.975 22.1354 43.2719 22.1354C43.6677 22.1354 43.9984 22.0833 44.2641 21.9791C44.5349 21.875 44.7406 21.7317 44.8813 21.5494C45.0219 21.3671 45.0922 21.1588 45.0922 20.9244ZM50.0312 11.1666V23.1666H48.5859V11.1666H50.0312ZM49.6875 18.6198L49.0859 18.5963C49.0911 18.0182 49.1771 17.4843 49.3438 16.9948C49.5104 16.5 49.7448 16.0703 50.0469 15.7057C50.349 15.3411 50.7083 15.0599 51.125 14.8619C51.5469 14.6588 52.013 14.5573 52.5234 14.5573C52.9401 14.5573 53.3151 14.6145 53.6484 14.7291C53.9818 14.8385 54.2656 15.0156 54.5 15.2604C54.7396 15.5052 54.9219 15.8229 55.0469 16.2135C55.1719 16.5989 55.2344 17.0703 55.2344 17.6276V23.1666H53.7812V17.6119C53.7812 17.1692 53.7161 16.8151 53.5859 16.5494C53.4557 16.2786 53.2656 16.0833 53.0156 15.9635C52.7656 15.8385 52.4583 15.776 52.0938 15.776C51.7344 15.776 51.4062 15.8515 51.1094 16.0026C50.8177 16.1536 50.5651 16.3619 50.3516 16.6276C50.1432 16.8932 49.9792 17.1979 49.8594 17.5416C49.7448 17.8802 49.6875 18.2395 49.6875 18.6198Z" fill="black" fill-opacity="0.87"/>
</g>
<defs>
<clipPath id="clip0_76_8232">
<rect y="0.166626" width="70" height="34" rx="4" fill="white"/>
</clipPath>
</defs>
</svg>
