<svg width="24" height="25" viewBox="0 0 24 25" fill="none" xmlns="http://www.w3.org/2000/svg">
<path d="M9 2V6.5H1.5L1.5 2H9ZM1.5 0.5C0.671573 0.5 0 1.17157 0 2V6.5C0 7.32843 0.671573 8 1.5 8H9C9.82843 8 10.5 7.32843 10.5 6.5V2C10.5 1.17157 9.82843 0.5 9 0.5H1.5Z" fill="black" fill-opacity="0.56"/>
<path d="M22.5 18.5V23H15V18.5H22.5ZM15 17C14.1716 17 13.5 17.6716 13.5 18.5V23C13.5 23.8284 14.1716 24.5 15 24.5H22.5C23.3284 24.5 24 23.8284 24 23V18.5C24 17.6716 23.3284 17 22.5 17H15Z" fill="black" fill-opacity="0.56"/>
<path d="M9 12.5V23H1.5L1.5 12.5H9ZM1.5 11C0.671573 11 0 11.6716 0 12.5V23C0 23.8284 0.671573 24.5 1.5 24.5H9C9.82843 24.5 10.5 23.8284 10.5 23V12.5C10.5 11.6716 9.82843 11 9 11H1.5Z" fill="black" fill-opacity="0.56"/>
<path d="M22.5 2V12.5H15V2H22.5ZM15 0.5C14.1716 0.5 13.5 1.17157 13.5 2V12.5C13.5 13.3284 14.1716 14 15 14H22.5C23.3284 14 24 13.3284 24 12.5V2C24 1.17157 23.3284 0.5 22.5 0.5H15Z" fill="black" fill-opacity="0.56"/>
</svg>
