<svg width="24" height="25" viewBox="0 0 24 25" fill="none" xmlns="http://www.w3.org/2000/svg">
<path d="M0 5.75C0 4.50736 1.00736 3.5 2.25 3.5H15.75C16.9926 3.5 18 4.50736 18 5.75V8H19.5291C20.2126 8 20.859 8.3107 21.286 8.84444L23.507 11.6206C23.8261 12.0196 24 12.5153 24 13.0262V16.25C24 17.4926 22.9926 18.5 21.75 18.5H21C21 20.1569 19.6569 21.5 18 21.5C16.3431 21.5 15 20.1569 15 18.5H7.5C7.5 20.1569 6.15685 21.5 4.5 21.5C2.84315 21.5 1.5 20.1569 1.5 18.5C1.5 18.4574 1.50089 18.415 1.50264 18.3729C0.627367 18.0648 0 17.2307 0 16.25V5.75ZM1.94093 16.9336C2.46844 16.0736 3.41723 15.5 4.5 15.5C5.61042 15.5 6.57994 16.1033 7.09865 17H15.4013C15.6648 16.5446 16.0446 16.1648 16.5 15.9013V5.75C16.5 5.33579 16.1642 5 15.75 5H2.25C1.83579 5 1.5 5.33579 1.5 5.75V16.25C1.5 16.554 1.6809 16.8158 1.94093 16.9336ZM18 15.5C19.1104 15.5 20.0799 16.1033 20.5987 17H21.75C22.1642 17 22.5 16.6642 22.5 16.25V13.0262C22.5 12.8559 22.442 12.6906 22.3357 12.5576L20.1147 9.78148C19.9724 9.60357 19.7569 9.5 19.5291 9.5H18V15.5ZM4.5 17C3.67157 17 3 17.6716 3 18.5C3 19.3284 3.67157 20 4.5 20C5.32843 20 6 19.3284 6 18.5C6 17.6716 5.32843 17 4.5 17ZM18 17C17.1716 17 16.5 17.6716 16.5 18.5C16.5 19.3284 17.1716 20 18 20C18.8284 20 19.5 19.3284 19.5 18.5C19.5 17.6716 18.8284 17 18 17Z" fill="#707070"/>
</svg>
