<svg width="24" height="25" viewBox="0 0 24 25" fill="none" xmlns="http://www.w3.org/2000/svg">
<path d="M3 12.5C3.82843 12.5 4.5 13.1716 4.5 14C4.5 14.8284 3.82843 15.5 3 15.5C2.17157 15.5 1.5 14.8284 1.5 14C1.5 13.1716 2.17157 12.5 3 12.5Z" fill="black" fill-opacity="0.56"/>
<path d="M3 8C3.82843 8 4.5 8.67157 4.5 9.5C4.5 10.3284 3.82843 11 3 11C2.17157 11 1.5 10.3284 1.5 9.5C1.5 8.67157 2.17157 8 3 8Z" fill="black" fill-opacity="0.56"/>
<path d="M7.5 12.5C8.32843 12.5 9 13.1716 9 14C9 14.8284 8.32843 15.5 7.5 15.5C6.67157 15.5 6 14.8284 6 14C6 13.1716 6.67157 12.5 7.5 12.5Z" fill="black" fill-opacity="0.56"/>
<path d="M7.5 8C8.32843 8 9 8.67157 9 9.5C9 10.3284 8.32843 11 7.5 11C6.67157 11 6 10.3284 6 9.5C6 8.67157 6.67157 8 7.5 8Z" fill="black" fill-opacity="0.56"/>
<path d="M12 12.5C12.8284 12.5 13.5 13.1716 13.5 14C13.5 14.8284 12.8284 15.5 12 15.5C11.1716 15.5 10.5 14.8284 10.5 14C10.5 13.1716 11.1716 12.5 12 12.5Z" fill="black" fill-opacity="0.56"/>
<path d="M12 8C12.8284 8 13.5 8.67157 13.5 9.5C13.5 10.3284 12.8284 11 12 11C11.1716 11 10.5 10.3284 10.5 9.5C10.5 8.67157 11.1716 8 12 8Z" fill="black" fill-opacity="0.56"/>
<path d="M16.5 12.5C17.3284 12.5 18 13.1716 18 14C18 14.8284 17.3284 15.5 16.5 15.5C15.6716 15.5 15 14.8284 15 14C15 13.1716 15.6716 12.5 16.5 12.5Z" fill="black" fill-opacity="0.56"/>
<path d="M16.5 8C17.3284 8 18 8.67157 18 9.5C18 10.3284 17.3284 11 16.5 11C15.6716 11 15 10.3284 15 9.5C15 8.67157 15.6716 8 16.5 8Z" fill="black" fill-opacity="0.56"/>
<path d="M21 12.5C21.8284 12.5 22.5 13.1716 22.5 14C22.5 14.8284 21.8284 15.5 21 15.5C20.1716 15.5 19.5 14.8284 19.5 14C19.5 13.1716 20.1716 12.5 21 12.5Z" fill="black" fill-opacity="0.56"/>
<path d="M21 8C21.8284 8 22.5 8.67157 22.5 9.5C22.5 10.3284 21.8284 11 21 11C20.1716 11 19.5 10.3284 19.5 9.5C19.5 8.67157 20.1716 8 21 8Z" fill="black" fill-opacity="0.56"/>
</svg>
