<svg width="32" height="33" viewBox="0 0 32 33" fill="none" xmlns="http://www.w3.org/2000/svg">
<path d="M21.25 10.5C21.6642 10.5 22 10.8358 22 11.25V12H23.5291C24.2126 12 24.859 12.3107 25.286 12.8444L27.507 15.6206C27.8261 16.0196 28 16.5153 28 17.0262V20.25C28 21.4926 26.9926 22.5 25.75 22.5H25C25 24.1569 23.6569 25.5 22 25.5C20.3431 25.5 19 24.1569 19 22.5H11.5C11.5 24.1569 10.1569 25.5 8.5 25.5C6.84315 25.5 5.5 24.1569 5.5 22.5C4.67157 22.5 4 21.8284 4 21V19.5H20.5V11.25C20.5 10.8358 20.8358 10.5 21.25 10.5ZM8.5 21C7.67157 21 7 21.6716 7 22.5C7 23.3284 7.67157 24 8.5 24C9.32843 24 10 23.3284 10 22.5C10 21.6716 9.32843 21 8.5 21ZM22 21C21.1716 21 20.5 21.6716 20.5 22.5C20.5 23.3284 21.1716 24 22 24C22.8284 24 23.5 23.3284 23.5 22.5C23.5 21.6716 22.8284 21 22 21ZM24.5987 21H25.75C26.1642 21 26.5 20.6642 26.5 20.25V17.0262C26.5 16.8559 26.442 16.6906 26.3356 16.5576L24.1147 13.7815C23.9724 13.6036 23.7569 13.5 23.5291 13.5H22V19.5C23.1104 19.5 24.0799 20.1033 24.5987 21Z" fill="#707070"/>
</svg>
