<svg width="32" height="33" viewBox="0 0 32 33" fill="none" xmlns="http://www.w3.org/2000/svg">
<rect y="0.5" width="32" height="32" rx="4" fill="white"/>
<path d="M16 16.5C19.3137 16.5 22 13.8137 22 10.5C22 7.18629 19.3137 4.5 16 4.5C12.6863 4.5 10 7.18629 10 10.5C10 13.8137 12.6863 16.5 16 16.5ZM20 10.5C20 12.7091 18.2091 14.5 16 14.5C13.7909 14.5 12 12.7091 12 10.5C12 8.29086 13.7909 6.5 16 6.5C18.2091 6.5 20 8.29086 20 10.5Z" fill="#707070"/>
<path d="M28 26.5C28 28.5 26 28.5 26 28.5H6C6 28.5 4 28.5 4 26.5C4 24.5 6 18.5 16 18.5C26 18.5 28 24.5 28 26.5ZM26 26.493C25.9971 25.9995 25.6924 24.5209 24.3358 23.1642C23.0313 21.8597 20.5782 20.5 16 20.5C11.4218 20.5 8.96871 21.8597 7.66419 23.1642C6.30751 24.5209 6.00285 25.9995 6 26.493H26Z" fill="#707070"/>
</svg>
