<svg width="40" height="42" viewBox="0 0 40 42" fill="none" xmlns="http://www.w3.org/2000/svg">
<path d="M14.0752 9.67502C14.0752 10.0892 13.7394 10.425 13.3252 10.425L9.5752 10.425C8.74677 10.425 8.0752 11.0966 8.0752 11.925L8.0752 29.925C8.0752 30.7534 8.74677 31.425 9.5752 31.425L13.3252 31.425C13.7394 31.425 14.0752 31.7608 14.0752 32.175C14.0752 32.5892 13.7394 32.925 13.3252 32.925H9.57519C7.91834 32.925 6.57519 31.5819 6.5752 29.925L6.5752 11.925C6.5752 10.2682 7.91835 8.92502 9.5752 8.92502L13.3252 8.92502C13.7394 8.92502 14.0752 9.26081 14.0752 9.67502Z" fill="#30628C"/>
<path d="M27.2803 21.4554C27.5732 21.1625 27.5732 20.6876 27.2803 20.3947L22.7803 15.8947C22.4874 15.6018 22.0125 15.6018 21.7196 15.8947C21.4267 16.1876 21.4267 16.6625 21.7196 16.9554L24.9393 20.175H11.7499C11.3357 20.175 10.9999 20.5108 10.9999 20.925C10.9999 21.3392 11.3357 21.675 11.7499 21.675H24.9393L21.7196 24.8947C21.4267 25.1876 21.4267 25.6625 21.7196 25.9554C22.0125 26.2482 22.4874 26.2482 22.7803 25.9554L27.2803 21.4554Z" fill="#30628C"/>
<rect width="40" height="42" rx="4" stroke="#30628C"/>
</svg>
