<svg width="78" height="43" viewBox="0 0 78 43" fill="none" xmlns="http://www.w3.org/2000/svg">
<g filter="url(#filter0_d_76_8230)">
<g clip-path="url(#clip0_76_8230)">
<rect x="4" y="0.166626" width="70" height="34" rx="4" fill="black" fill-opacity="0.06"/>
<path d="M28.3828 20.2916C28.3828 20.026 28.3411 19.7916 28.2578 19.5885C28.1797 19.3802 28.0391 19.1927 27.8359 19.026C27.638 18.8593 27.362 18.7005 27.0078 18.5494C26.6589 18.3984 26.2161 18.2448 25.6797 18.0885C25.1172 17.9218 24.6094 17.7369 24.1562 17.5338C23.7031 17.3255 23.3151 17.0885 22.9922 16.8229C22.6693 16.5573 22.4219 16.2526 22.25 15.9088C22.0781 15.5651 21.9922 15.1718 21.9922 14.7291C21.9922 14.2864 22.0833 13.8776 22.2656 13.5026C22.4479 13.1276 22.7083 12.802 23.0469 12.526C23.3906 12.2448 23.7995 12.026 24.2734 11.8698C24.7474 11.7135 25.276 11.6354 25.8594 11.6354C26.7135 11.6354 27.4375 11.7994 28.0312 12.1276C28.6302 12.4505 29.0859 12.875 29.3984 13.401C29.7109 13.9218 29.8672 14.4791 29.8672 15.0729H28.3672C28.3672 14.6458 28.276 14.2682 28.0938 13.9401C27.9115 13.6067 27.6354 13.3463 27.2656 13.1588C26.8958 12.9661 26.4271 12.8698 25.8594 12.8698C25.3229 12.8698 24.8802 12.9505 24.5312 13.1119C24.1823 13.2734 23.9219 13.4921 23.75 13.7682C23.5833 14.0442 23.5 14.3593 23.5 14.7135C23.5 14.9531 23.5495 15.1718 23.6484 15.3698C23.7526 15.5625 23.9115 15.7421 24.125 15.9088C24.3438 16.0755 24.6198 16.2291 24.9531 16.3698C25.2917 16.5104 25.6953 16.6458 26.1641 16.776C26.8099 16.9583 27.3672 17.1614 27.8359 17.3854C28.3047 17.6093 28.6901 17.8619 28.9922 18.1432C29.2995 18.4192 29.526 18.7343 29.6719 19.0885C29.8229 19.4375 29.8984 19.8333 29.8984 20.276C29.8984 20.7395 29.8047 21.1588 29.6172 21.5338C29.4297 21.9088 29.1615 22.2291 28.8125 22.4948C28.4635 22.7604 28.0443 22.9661 27.5547 23.1119C27.0703 23.2526 26.5286 23.3229 25.9297 23.3229C25.4036 23.3229 24.8854 23.25 24.375 23.1041C23.8698 22.9583 23.4089 22.7395 22.9922 22.4479C22.5807 22.1562 22.25 21.7968 22 21.3698C21.7552 20.9375 21.6328 20.4375 21.6328 19.8698H23.1328C23.1328 20.2604 23.2083 20.5963 23.3594 20.8776C23.5104 21.1536 23.7161 21.3828 23.9766 21.5651C24.2422 21.7474 24.5417 21.8828 24.875 21.9713C25.2135 22.0546 25.5651 22.0963 25.9297 22.0963C26.4557 22.0963 26.901 22.0234 27.2656 21.8776C27.6302 21.7317 27.9062 21.5234 28.0938 21.2526C28.2865 20.9817 28.3828 20.6614 28.3828 20.2916ZM35.2906 14.7135V15.8229H30.7203V14.7135H35.2906ZM32.2672 12.6588H33.7125V21.0729C33.7125 21.3593 33.7568 21.5755 33.8453 21.7213C33.9339 21.8671 34.0484 21.9635 34.1891 22.0104C34.3297 22.0573 34.4807 22.0807 34.6422 22.0807C34.762 22.0807 34.887 22.0703 35.0172 22.0494C35.1526 22.0234 35.2542 22.0026 35.3219 21.9869L35.3297 23.1666C35.2151 23.2031 35.0641 23.2369 34.8766 23.2682C34.6943 23.3046 34.4729 23.3229 34.2125 23.3229C33.8583 23.3229 33.5328 23.2526 33.2359 23.1119C32.9391 22.9713 32.7021 22.7369 32.525 22.4088C32.3531 22.0755 32.2672 21.6276 32.2672 21.0651V12.6588ZM42.1203 21.7213V17.3698C42.1203 17.0364 42.0526 16.7474 41.9172 16.5026C41.787 16.2526 41.5891 16.0599 41.3234 15.9244C41.0578 15.789 40.7297 15.7213 40.3391 15.7213C39.9745 15.7213 39.6542 15.7838 39.3781 15.9088C39.1073 16.0338 38.8938 16.1979 38.7375 16.401C38.5865 16.6041 38.5109 16.8229 38.5109 17.0573H37.0656C37.0656 16.7552 37.1438 16.4557 37.3 16.1588C37.4563 15.8619 37.6802 15.5937 37.9719 15.3541C38.2688 15.1093 38.6229 14.9166 39.0344 14.776C39.451 14.6302 39.9146 14.5573 40.425 14.5573C41.0396 14.5573 41.5813 14.6614 42.05 14.8698C42.524 15.0781 42.8938 15.3932 43.1594 15.8151C43.4302 16.2317 43.5656 16.7552 43.5656 17.3854V21.3229C43.5656 21.6041 43.5891 21.9036 43.6359 22.2213C43.688 22.539 43.7635 22.8125 43.8625 23.0416V23.1666H42.3547C42.2818 23 42.2245 22.7786 42.1828 22.5026C42.1411 22.2213 42.1203 21.9609 42.1203 21.7213ZM42.3703 18.0416L42.3859 19.0573H40.925C40.5135 19.0573 40.1464 19.0911 39.8234 19.1588C39.5005 19.2213 39.2297 19.3177 39.0109 19.4479C38.7922 19.5781 38.6255 19.7421 38.5109 19.9401C38.3964 20.1328 38.3391 20.3593 38.3391 20.6198C38.3391 20.8854 38.399 21.1276 38.5188 21.3463C38.6385 21.5651 38.8182 21.7395 39.0578 21.8698C39.3026 21.9948 39.6021 22.0573 39.9563 22.0573C40.399 22.0573 40.7896 21.9635 41.1281 21.776C41.4667 21.5885 41.7349 21.3593 41.9328 21.0885C42.1359 20.8177 42.2453 20.5546 42.2609 20.2994L42.8781 20.9948C42.8417 21.2135 42.7427 21.4557 42.5813 21.7213C42.4198 21.9869 42.2036 22.2421 41.9328 22.4869C41.6672 22.7265 41.3495 22.927 40.9797 23.0885C40.6151 23.2448 40.2036 23.3229 39.7453 23.3229C39.1724 23.3229 38.6698 23.2109 38.2375 22.9869C37.8104 22.763 37.4771 22.4635 37.2375 22.0885C37.0031 21.7083 36.8859 21.2838 36.8859 20.8151C36.8859 20.3619 36.9745 19.9635 37.1516 19.6198C37.3286 19.2708 37.5839 18.9817 37.9172 18.7526C38.2505 18.5182 38.6516 18.3411 39.1203 18.2213C39.5891 18.1015 40.1125 18.0416 40.6906 18.0416H42.3703ZM47.4344 16.0416V23.1666H45.9891V14.7135H47.3953L47.4344 16.0416ZM50.075 14.6666L50.0672 16.0104C49.9474 15.9843 49.8328 15.9687 49.7234 15.9635C49.6193 15.9531 49.4995 15.9479 49.3641 15.9479C49.0307 15.9479 48.7365 16 48.4813 16.1041C48.226 16.2083 48.0099 16.3541 47.8328 16.5416C47.6557 16.7291 47.5151 16.9531 47.4109 17.2135C47.312 17.4687 47.2469 17.75 47.2156 18.0573L46.8094 18.2916C46.8094 17.7812 46.8589 17.302 46.9578 16.8541C47.062 16.4062 47.2208 16.0104 47.4344 15.6666C47.6479 15.3177 47.9188 15.0468 48.2469 14.8541C48.5802 14.6562 48.976 14.5573 49.4344 14.5573C49.5385 14.5573 49.6583 14.5703 49.7938 14.5963C49.9292 14.6171 50.0229 14.6406 50.075 14.6666ZM55.4906 14.7135V15.8229H50.9203V14.7135H55.4906ZM52.4672 12.6588H53.9125V21.0729C53.9125 21.3593 53.9568 21.5755 54.0453 21.7213C54.1339 21.8671 54.2484 21.9635 54.3891 22.0104C54.5297 22.0573 54.6807 22.0807 54.8422 22.0807C54.962 22.0807 55.087 22.0703 55.2172 22.0494C55.3526 22.0234 55.4542 22.0026 55.5219 21.9869L55.5297 23.1666C55.4151 23.2031 55.2641 23.2369 55.0766 23.2682C54.8943 23.3046 54.6729 23.3229 54.4125 23.3229C54.0583 23.3229 53.7328 23.2526 53.4359 23.1119C53.1391 22.9713 52.9021 22.7369 52.725 22.4088C52.5531 22.0755 52.4672 21.6276 52.4672 21.0651V12.6588Z" fill="black" fill-opacity="0.87"/>
</g>
</g>
<defs>
<filter id="filter0_d_76_8230" x="0" y="0.166626" width="78" height="42" filterUnits="userSpaceOnUse" color-interpolation-filters="sRGB">
<feFlood flood-opacity="0" result="BackgroundImageFix"/>
<feColorMatrix in="SourceAlpha" type="matrix" values="0 0 0 0 0 0 0 0 0 0 0 0 0 0 0 0 0 0 127 0" result="hardAlpha"/>
<feOffset dy="4"/>
<feGaussianBlur stdDeviation="2"/>
<feComposite in2="hardAlpha" operator="out"/>
<feColorMatrix type="matrix" values="0 0 0 0 0 0 0 0 0 0 0 0 0 0 0 0 0 0 0.25 0"/>
<feBlend mode="normal" in2="BackgroundImageFix" result="effect1_dropShadow_76_8230"/>
<feBlend mode="normal" in="SourceGraphic" in2="effect1_dropShadow_76_8230" result="shape"/>
</filter>
<clipPath id="clip0_76_8230">
<rect x="4" y="0.166626" width="70" height="34" rx="4" fill="white"/>
</clipPath>
</defs>
</svg>
